Coordinates
version=1
nRows=19
nColumns=24
inDegrees=yes

Units are S.I. units (second, meters, Newtons, ...)
Angles are in degrees.

endheader
time	pelvis_tilt	pelvis_list	pelvis_rotation	pelvis_tx	pelvis_ty	pelvis_tz	hip_flexion_r	hip_adduction_r	hip_rotation_r	knee_angle_r	ankle_angle_r	subtalar_angle_r	mtp_angle_r	hip_flexion_l	hip_adduction_l	hip_rotation_l	knee_angle_l	ankle_angle_l	subtalar_angle_l	mtp_angle_l	lumbar_extension	lumbar_bending	lumbar_rotation
      1.51500000	     -8.60663705	      0.41003330	      1.75639338	     -0.22707139	      1.23519611	     -0.90048268	     33.56898262	      2.60177413	     -1.08866821	    -33.89057787	      7.45449813	     -6.73295824	      7.69187400	     11.54956256	     10.36371216	     13.36103762	    -19.54954321	      7.76600983	     -2.97523964	      8.10648397	     -4.37444075	     -1.90988510	     -2.22396849
      1.52000000	     -8.66081210	      0.34017603	      1.81691309	     -0.22148929	      1.23485913	     -0.90014869	     33.41705874	      2.64372374	     -0.95345081	    -31.37346360	      7.43370504	     -7.07418795	      7.43223071	     11.19683758	     10.26231373	     13.37262533	    -19.61896757	      8.15056299	     -2.78778830	      8.17206790	     -4.35199107	     -1.87902074	     -2.30528195
      1.52500000	     -8.74312822	      0.29226385	      1.83491462	     -0.21587447	      1.23440383	     -0.89966007	     33.23691059	      2.70821590	     -0.71119093	    -28.76152461	      7.25010641	     -7.58755622	      7.14238639	     10.92508848	     10.15931552	     13.20210464	    -19.78051216	      8.65418205	     -2.40730538	      8.22640488	     -4.29097020	     -1.89313177	     -2.27874801
      1.53000000	     -8.81473312	      0.26249003	      1.93193551	     -0.21019791	      1.23389425	     -0.89931656	     32.99475296	      2.66705681	     -0.65997335	    -26.12680367	      7.12114148	     -7.88959262	      6.94682274	     10.61006266	     10.10773134	     13.19665758	    -19.89670732	      9.05549364	     -2.19416437	      8.30117567	     -4.23556495	     -1.91437343	     -2.36466423
      1.53500000	     -8.91195057	      0.25996858	      2.01559352	     -0.20449155	      1.23327777	     -0.89889921	     32.75748909	      2.60958536	     -0.59410543	    -23.50309457	      6.89070986	     -8.21172425	      6.77220231	     10.35389016	     10.07682807	     13.10700387	    -20.07034346	      9.49583412	     -1.90064605	      8.39338891	     -4.14522702	     -1.97424526	     -2.39968357
      1.54000000	     -9.03165093	      0.27565883	      2.11668859	     -0.19876477	      1.23256964	     -0.89850547	     32.54034076	      2.51027793	     -0.61466966	    -20.95017837	      6.66670140	     -8.38831703	      6.63175382	     10.14007690	     10.07559399	     13.02630245	    -20.28072977	      9.92558252	     -1.60747711	      8.48267859	     -4.02647043	     -2.05184749	     -2.43617605
      1.54500000	     -9.16553354	      0.30133021	      2.24652743	     -0.19305798	      1.23180168	     -0.89813660	     32.34229512	      2.37610874	     -0.74537009	    -18.49233375	      6.45894323	     -8.39728245	      6.51825165	      9.96916331	     10.09771137	     12.97714520	    -20.53969334	     10.32286386	     -1.34471782	      8.58136854	     -3.90036829	     -2.14508917	     -2.45934064
      1.55000000	     -9.31569086	      0.33019834	      2.37436245	     -0.18729697	      1.23099313	     -0.89775714	     32.15449860	      2.24173759	     -0.94134027	    -16.12180860	      6.26522148	     -8.28974333	      6.43505363	      9.81799616	     10.11985138	     12.89892922	    -20.80396879	     10.71337247	     -1.07573582	      8.69160817	     -3.74600909	     -2.23508284	     -2.47797054
      1.55500000	     -9.46568732	      0.35488080	      2.50809565	     -0.18147664	      1.23015999	     -0.89736546	     31.95207655	      2.11626045	     -1.20692509	    -13.83556243	      6.06971596	     -8.05695094	      6.39047982	      9.67680046	     10.13576861	     12.81307772	    -21.09769358	     11.10919166	     -0.77790241	      8.81279675	     -3.57838121	     -2.31864394	     -2.50593733
      1.56000000	     -9.61536054	      0.38265427	      2.64818420	     -0.17564728	      1.22929790	     -0.89695380	     31.75536348	      1.99482912	     -1.53656942	    -11.67234227	      5.88912938	     -7.69025750	      6.39634402	      9.54661226	     10.15154234	     12.71460339	    -21.40950354	     11.50768418	     -0.44069478	      8.94221137	     -3.41496273	     -2.40602791	     -2.53039661
      1.56500000	     -9.76753368	      0.40974905	      2.79692859	     -0.16978325	      1.22841300	     -0.89654577	     31.56868283	      1.87987110	     -1.94139731	     -9.64699387	      5.71253496	     -7.17240291	      6.46331801	      9.43439252	     10.16750942	     12.61317501	    -21.75554904	     11.90511409	     -0.07895662	      9.07811383	     -3.23896196	     -2.48231425	     -2.55693081
      1.57000000	     -9.91819616	      0.44789993	      2.92340678	     -0.16388673	      1.22749974	     -0.89606727	     31.41090541	      1.77932939	     -2.37434887	     -7.80548305	      5.60907781	     -6.40632664	      6.67209798	      9.33559462	     10.17767421	     12.43089314	    -22.13120936	     12.35063409	      0.40584242	      9.18804097	     -3.06176117	     -2.57240152	     -2.56486394
      1.57500000	    -10.08177703	      0.47361766	      3.08594525	     -0.15798558	      1.22658260	     -0.89563746	     31.27640669	      1.68620590	     -2.89087445	     -6.12701648	      5.47498848	     -5.60564275	      6.87287661	      9.26204673	     10.19260591	     12.34985702	    -22.52946746	     12.70731488	      0.77114751	      9.32794927	     -2.86773678	     -2.64270048	     -2.58842336
      1.58000000	    -10.24726881	      0.49881936	      3.24947039	     -0.15207135	      1.22565482	     -0.89520848	     31.17012802	      1.60568816	     -3.42715668	     -4.64559574	      5.35191539	     -4.71703950	      7.10891593	      9.20420830	     10.20692937	     12.26584370	    -22.95318869	     13.05289729	      1.13971549	      9.50235185	     -2.67292880	     -2.69681732	     -2.62852154
      1.58500000	    -10.41324915	      0.51639594	      3.41447527	     -0.14614913	      1.22472353	     -0.89476245	     31.08824932	      1.54737960	     -3.96904567	     -3.36311956	      5.21520985	     -3.80411174	      7.35374515	      9.17012721	     10.21183468	     12.18521678	    -23.41840612	     13.37486253	      1.50826974	      9.69922828	     -2.47482527	     -2.73927737	     -2.65916660
      1.59000000	    -10.58439527	      0.52228014	      3.58430101	     -0.14024365	      1.22380747	     -0.89433456	     31.04686987	      1.50696027	     -4.52967528	     -2.30196669	      5.03107481	     -2.91131051	      7.60416425	      9.18009183	     10.21067716	     12.11358706	    -23.95100726	     13.64563341	      1.85902084	      9.91714210	     -2.26831949	     -2.76045106	     -2.63663778
      1.59500000	    -10.74691018	      0.53642014	      3.72957676	     -0.13433099	      1.22290149	     -0.89386262	     31.03154199	      1.47861654	     -5.02611173	     -1.46310228	      4.86616589	     -1.99008972	      7.87215025	      9.18918015	     10.20527763	     12.00963614	    -24.49420893	     13.90610688	      2.23897548	     10.16130551	     -2.07808735	     -2.77708400	     -2.62587587
      1.60000000	    -10.90266979	      0.55313207	      3.85996605	     -0.12836285	      1.22202109	     -0.89337641	     31.03181684	      1.45860511	     -5.47173170	     -0.83162152	      4.76031897	     -1.04258100	      8.17116241	      9.19375154	     10.19211996	     11.87911111	    -25.04178884	     14.14689773	      2.66583394	     10.44462565	     -1.88552142	     -2.78176035	     -2.63918869
      1.60500000	    -11.05399481	      0.54552914	      4.01589303	     -0.12246264	      1.22118298	     -0.89296160	     31.05910695	      1.45059460	     -5.91063418	     -0.41076845	      4.49599956	     -0.34924309	      8.38509209	      9.25609199	     10.17403668	     11.80842036	    -25.69472981	     14.32766673	      3.02760328	     10.75279358	     -1.71088931	     -2.74630216	     -2.62041215
